<svg xmlns="http://www.w3.org/2000/svg" xmlns:xlink="http://www.w3.org/1999/xlink" width="878" height="1122" viewBox="0 0 878 1122"><defs><filter id="a" x="221.787" y="71.531" width="435.465" height="54.938" filterUnits="userSpaceOnUse"><feOffset dx="1" dy="1" input="SourceAlpha"/><feGaussianBlur stdDeviation="3" result="b"/><feFlood flood-opacity="0.161"/><feComposite operator="in" in2="b"/><feComposite in="SourceGraphic"/></filter><filter id="c" x="388.723" y="35.793" width="98.771" height="38.252" filterUnits="userSpaceOnUse"><feOffset dy="3" input="SourceAlpha"/><feGaussianBlur stdDeviation="3" result="d"/><feFlood flood-opacity="0.161"/><feComposite operator="in" in2="d"/><feComposite in="SourceGraphic"/></filter><linearGradient id="e" x1="0.5" x2="0.5" y2="1" gradientUnits="objectBoundingBox"><stop offset="0" stop-color="#d8d8d8"/><stop offset="0.105" stop-color="#d8d8d8" stop-opacity="0.973"/><stop offset="0.243" stop-color="#d8d8d8" stop-opacity="0.894"/><stop offset="0.4" stop-color="#d8d8d8" stop-opacity="0.769"/><stop offset="0.571" stop-color="#d9d9d9" stop-opacity="0.592"/><stop offset="0.754" stop-color="#d9d9d9" stop-opacity="0.365"/><stop offset="0.943" stop-color="#dadada" stop-opacity="0.09"/><stop offset="1" stop-color="#dbdbdb" stop-opacity="0"/></linearGradient><clipPath id="f"><rect width="324.773" height="33.451" transform="translate(0 0)" fill="none"/></clipPath><clipPath id="h"><rect width="878" height="1122"/></clipPath></defs><g id="g" clip-path="url(#h)"><rect width="878" height="1122" fill="#fff"/><rect width="878" height="10" transform="translate(0 1024.555)" fill="#669e9b"/><rect width="878" height="10.172" transform="translate(0 152.383)" fill="#669e9b"/><rect width="878" height="152.384" transform="translate(0 0.001)" fill="#454857"/><g transform="matrix(1, 0, 0, 1, 0, 0)" filter="url(#a)"><path d="M245.865,22.289a7.4,7.4,0,0,0-6.352,3.082q-2.25,3.082-2.25,8.59,0,11.461,8.6,11.461a27.19,27.19,0,0,0,8.742-1.8v6.094a24.278,24.278,0,0,1-9.422,1.758q-7.477,0-11.437-4.535t-3.961-13.02a21.26,21.26,0,0,1,1.945-9.363,14.06,14.06,0,0,1,5.59-6.164,16.536,16.536,0,0,1,8.543-2.145A23.057,23.057,0,0,1,255.9,18.656l-2.344,5.906a38.8,38.8,0,0,0-3.867-1.594A11.537,11.537,0,0,0,245.865,22.289Zm20.684,15.563a11,11,0,0,0,1.277,5.883,4.568,4.568,0,0,0,4.16,1.992,4.5,4.5,0,0,0,4.113-1.98,11.156,11.156,0,0,0,1.254-5.895,10.823,10.823,0,0,0-1.266-5.836A5.381,5.381,0,0,0,267.815,32,10.814,10.814,0,0,0,266.549,37.852Zm18.117,0q0,6.4-3.375,10.008t-9.4,3.609a13.147,13.147,0,0,1-6.656-1.652,11,11,0,0,1-4.43-4.746,15.948,15.948,0,0,1-1.547-7.219q0-6.422,3.352-9.984t9.422-3.562a13.222,13.222,0,0,1,6.656,1.641,10.951,10.951,0,0,1,4.43,4.711A15.8,15.8,0,0,1,284.666,37.852ZM314.28,51h-7.148V35.7a7.351,7.351,0,0,0-1.008-4.254,3.667,3.667,0,0,0-3.211-1.418,4.827,4.827,0,0,0-4.336,2q-1.336,2-1.336,6.645V51h-7.148V24.8h5.461l.961,3.352h.4a7.554,7.554,0,0,1,3.293-2.871,11.213,11.213,0,0,1,4.77-.973q4.57,0,6.938,2.473t2.367,7.137ZM332.2,45.773a15.5,15.5,0,0,0,4.5-.82v5.32a16.045,16.045,0,0,1-6.562,1.2q-4.289,0-6.246-2.168t-1.957-6.5V30.164h-3.422V27.141l3.938-2.391,2.063-5.531h4.57V24.8h7.336v5.367h-7.336V42.8a2.791,2.791,0,0,0,.855,2.25A3.375,3.375,0,0,0,332.2,45.773ZM356.141,24.3a11.528,11.528,0,0,1,2.414.211l-.539,6.7a8.189,8.189,0,0,0-2.109-.234,7.581,7.581,0,0,0-5.332,1.758,6.354,6.354,0,0,0-1.91,4.922V51h-7.148V24.8h5.414l1.055,4.406h.352a9.85,9.85,0,0,1,3.293-3.551A8.12,8.12,0,0,1,356.141,24.3ZM379.473,51l-1.383-3.562H377.9a10.558,10.558,0,0,1-3.715,3.152,12.005,12.005,0,0,1-4.98.879,8.054,8.054,0,0,1-5.941-2.156,8.281,8.281,0,0,1-2.168-6.141,6.914,6.914,0,0,1,2.918-6.152q2.918-1.98,8.8-2.191l4.547-.141V33.539q0-3.984-4.078-3.984a18.584,18.584,0,0,0-7.383,1.9l-2.367-4.828a21.3,21.3,0,0,1,10.031-2.367q5.273,0,8.086,2.3t2.813,6.984V51Zm-2.109-12.141-2.766.094a8.857,8.857,0,0,0-4.641,1.125,3.533,3.533,0,0,0-1.523,3.141q0,3.023,3.469,3.023a5.494,5.494,0,0,0,3.973-1.43,5.022,5.022,0,0,0,1.488-3.8Zm25.02,6.914a15.5,15.5,0,0,0,4.5-.82v5.32a16.045,16.045,0,0,1-6.562,1.2q-4.289,0-6.246-2.168t-1.957-6.5V30.164H388.7V27.141l3.938-2.391,2.063-5.531h4.57V24.8H406.6v5.367h-7.336V42.8a2.791,2.791,0,0,0,.855,2.25A3.375,3.375,0,0,0,402.384,45.773Zm29.6,5.7a8.511,8.511,0,0,1-7.254-3.586Q422.1,44.3,422.1,37.945q0-6.445,2.684-10.043a8.716,8.716,0,0,1,7.395-3.6,8.548,8.548,0,0,1,7.547,3.844h.234a29.224,29.224,0,0,1-.539-5.227V14.531h7.172V51H441.1l-1.383-3.4h-.3A8.18,8.18,0,0,1,431.986,51.469Zm2.508-5.7a4.844,4.844,0,0,0,4.02-1.594q1.277-1.594,1.395-5.414v-.773q0-4.219-1.3-6.047a4.831,4.831,0,0,0-4.23-1.828,4.2,4.2,0,0,0-3.715,2.027,10.816,10.816,0,0,0-1.324,5.895,10.251,10.251,0,0,0,1.336,5.8A4.365,4.365,0,0,0,434.494,45.773Zm29.942-16.383a4.534,4.534,0,0,0-3.562,1.441,6.671,6.671,0,0,0-1.477,4.09h10.031a5.959,5.959,0,0,0-1.383-4.09A4.682,4.682,0,0,0,464.436,29.391Zm1.008,22.078q-6.328,0-9.891-3.492t-3.562-9.891q0-6.586,3.293-10.184t9.105-3.6q5.555,0,8.648,3.164t3.094,8.742V39.68h-16.9a6.881,6.881,0,0,0,1.8,4.758,6.35,6.35,0,0,0,4.734,1.711,19.654,19.654,0,0,0,4.477-.492,22.4,22.4,0,0,0,4.406-1.57v5.531a16.785,16.785,0,0,1-4.008,1.395A25.269,25.269,0,0,1,465.444,51.469ZM507.234,51h-7.266V22.781h-9.3V16.734h25.875v6.047h-9.3Zm28.161-26.7a11.528,11.528,0,0,1,2.414.211l-.539,6.7a8.189,8.189,0,0,0-2.109-.234,7.581,7.581,0,0,0-5.332,1.758,6.354,6.354,0,0,0-1.91,4.922V51h-7.148V24.8h5.414l1.055,4.406h.352a9.85,9.85,0,0,1,3.293-3.551A8.12,8.12,0,0,1,535.394,24.3ZM558.727,51l-1.383-3.562h-.187a10.558,10.558,0,0,1-3.715,3.152,12.005,12.005,0,0,1-4.98.879,8.054,8.054,0,0,1-5.941-2.156,8.281,8.281,0,0,1-2.168-6.141,6.914,6.914,0,0,1,2.918-6.152q2.918-1.98,8.8-2.191l4.547-.141V33.539q0-3.984-4.078-3.984a18.584,18.584,0,0,0-7.383,1.9l-2.367-4.828a21.3,21.3,0,0,1,10.031-2.367q5.273,0,8.086,2.3t2.813,6.984V51Zm-2.109-12.141-2.766.094a8.857,8.857,0,0,0-4.641,1.125,3.533,3.533,0,0,0-1.523,3.141q0,3.023,3.469,3.023a5.494,5.494,0,0,0,3.973-1.43,5.022,5.022,0,0,0,1.488-3.8ZM576.833,51l-9.984-26.2h7.477l5.063,14.93a26.641,26.641,0,0,1,1.055,5.367h.141a23.34,23.34,0,0,1,1.055-5.367l5.039-14.93h7.477L584.169,51Zm37.231,0-1.383-3.562h-.187a10.558,10.558,0,0,1-3.715,3.152,12.005,12.005,0,0,1-4.98.879,8.054,8.054,0,0,1-5.941-2.156,8.281,8.281,0,0,1-2.168-6.141,6.914,6.914,0,0,1,2.918-6.152q2.918-1.98,8.8-2.191l4.547-.141V33.539q0-3.984-4.078-3.984a18.584,18.584,0,0,0-7.383,1.9l-2.367-4.828a21.3,21.3,0,0,1,10.031-2.367q5.273,0,8.086,2.3t2.813,6.984V51Zm-2.109-12.141-2.766.094a8.857,8.857,0,0,0-4.641,1.125,3.533,3.533,0,0,0-1.523,3.141q0,3.023,3.469,3.023a5.494,5.494,0,0,0,3.973-1.43,5.022,5.022,0,0,0,1.488-3.8ZM625.63,18.023q0-3.492,3.891-3.492t3.891,3.492a3.4,3.4,0,0,1-.973,2.59,4.088,4.088,0,0,1-2.918.926Q625.63,21.539,625.63,18.023ZM633.084,51h-7.148V24.8h7.148Zm14.168,0H640.1V14.531h7.148Z" transform="translate(0 65)" fill="#fff"/></g><g transform="matrix(1, 0, 0, 1, 0, 0)" filter="url(#c)"><path d="M408.787,22,407.7,18.432h-5.465L401.148,22h-3.425l5.291-15.053H406.9L412.212,22Zm-1.846-6.234q-1.507-4.85-1.7-5.486t-.272-1q-.338,1.313-1.938,6.491Zm10.336-1.7h1.046a3.483,3.483,0,0,0,2.194-.579,2.028,2.028,0,0,0,.728-1.687,2.079,2.079,0,0,0-.61-1.651,2.859,2.859,0,0,0-1.912-.533h-1.446Zm7.178-2.379a4.582,4.582,0,0,1-1.512,3.7,6.469,6.469,0,0,1-4.3,1.282h-1.364V22H414.1V7.009h4.789a6.369,6.369,0,0,1,4.148,1.174A4.281,4.281,0,0,1,424.455,11.685ZM435.919,22h-8.634V7.009h8.634v2.6h-5.455V12.9h5.076v2.6h-5.076v3.866h5.455Zm6.306-8.336h1.025a3.923,3.923,0,0,0,2.225-.5,1.793,1.793,0,0,0,.718-1.579,1.64,1.64,0,0,0-.733-1.518,4.449,4.449,0,0,0-2.271-.451h-.964Zm0,2.584V22h-3.179V7.009h4.368a7.476,7.476,0,0,1,4.522,1.113A3.971,3.971,0,0,1,449.4,11.5a3.977,3.977,0,0,1-.728,2.353,4.817,4.817,0,0,1-2.061,1.615Q450,20.523,451.023,22H447.5l-3.579-5.752Zm17.052-6.809a3.239,3.239,0,0,0-2.779,1.348,6.273,6.273,0,0,0-.984,3.758q0,5.014,3.763,5.014a11.9,11.9,0,0,0,3.825-.79v2.666a10.622,10.622,0,0,1-4.122.769,6.287,6.287,0,0,1-5-1.984,8.4,8.4,0,0,1-1.733-5.7,9.3,9.3,0,0,1,.851-4.1,6.151,6.151,0,0,1,2.446-2.7,7.235,7.235,0,0,1,3.738-.938,10.088,10.088,0,0,1,4.389,1.056l-1.025,2.584a16.973,16.973,0,0,0-1.692-.7A5.047,5.047,0,0,0,459.277,9.439Zm1.579,15.125a2.224,2.224,0,0,1-.774,1.9,3.976,3.976,0,0,1-2.394.584,5.048,5.048,0,0,1-1.5-.215V25.107q.277.072.743.144a5.1,5.1,0,0,0,.723.072q.738,0,.738-.636,0-.851-1.7-1.107l.8-1.579h1.979l-.277.625a2.644,2.644,0,0,1,1.21.764A1.739,1.739,0,0,1,460.856,24.563ZM478.493,7.009v9.7a5.592,5.592,0,0,1-.743,2.912,4.838,4.838,0,0,1-2.148,1.917,7.682,7.682,0,0,1-3.322.667,6.361,6.361,0,0,1-4.491-1.482,5.256,5.256,0,0,1-1.6-4.055V7.009h3.168v9.177a3.844,3.844,0,0,0,.7,2.543,2.9,2.9,0,0,0,2.307.81,2.834,2.834,0,0,0,2.261-.815,3.864,3.864,0,0,0,.7-2.558V7.009Z" transform="translate(0 35)" fill="#fff"/></g><rect width="878" height="87.445" transform="translate(0 1034.555)" fill="#454857"/><path d="M8.357-13.1a4.04,4.04,0,0,0-3.322,1.5,6.4,6.4,0,0,0-1.21,4.132A6.442,6.442,0,0,0,4.989-3.3,4.111,4.111,0,0,0,8.357-1.887a8.851,8.851,0,0,0,1.846-.19q.892-.19,1.856-.487v2.1a11.252,11.252,0,0,1-4,.667A6.392,6.392,0,0,1,3-1.789,8.343,8.343,0,0,1,1.241-7.5,9.221,9.221,0,0,1,2.1-11.587a6.111,6.111,0,0,1,2.476-2.687,7.49,7.49,0,0,1,3.8-.933,9.441,9.441,0,0,1,4.245.964L11.741-12.2a13.166,13.166,0,0,0-1.6-.631A5.782,5.782,0,0,0,8.357-13.1ZM24.881-5.691a6.19,6.19,0,0,1-1.425,4.337A5.107,5.107,0,0,1,19.488.205a5.437,5.437,0,0,1-2.81-.718A4.739,4.739,0,0,1,14.8-2.574a7.02,7.02,0,0,1-.656-3.117A6.148,6.148,0,0,1,15.561-10a5.131,5.131,0,0,1,3.989-1.548,5,5,0,0,1,3.9,1.584A6.12,6.12,0,0,1,24.881-5.691Zm-8.254,0q0,3.927,2.9,3.927,2.871,0,2.871-3.927,0-3.886-2.892-3.886a2.466,2.466,0,0,0-2.2,1A5.114,5.114,0,0,0,16.627-5.691ZM37.417,0H35V-6.973a3.052,3.052,0,0,0-.528-1.958,2.041,2.041,0,0,0-1.677-.646,2.666,2.666,0,0,0-2.235.9A4.982,4.982,0,0,0,29.85-5.65V0H27.44V-11.341h1.887l.338,1.487h.123A3.355,3.355,0,0,1,31.244-11.1a4.88,4.88,0,0,1,2.092-.441q4.081,0,4.081,4.153Zm7.368-1.743a5.86,5.86,0,0,0,1.764-.277V-.205a4.864,4.864,0,0,1-1.031.292A7.1,7.1,0,0,1,44.21.205q-3.425,0-3.425-3.609V-9.516H39.237v-1.066l1.661-.882.82-2.4h1.487v2.522h3.23v1.825h-3.23v6.07a1.7,1.7,0,0,0,.436,1.287A1.589,1.589,0,0,0,44.785-1.743Zm9.572-9.8a5.8,5.8,0,0,1,1.2.1L55.321-9.2a4.554,4.554,0,0,0-1.066-.123,3.086,3.086,0,0,0-2.343.943,3.41,3.41,0,0,0-.9,2.451V0H48.6V-11.341h1.887l.318,2h.123a4.493,4.493,0,0,1,1.471-1.61A3.5,3.5,0,0,1,54.357-11.546ZM64.544,0l-.482-1.579H63.98a4.646,4.646,0,0,1-1.651,1.41A5.221,5.221,0,0,1,60.2.205a3.61,3.61,0,0,1-2.61-.9,3.377,3.377,0,0,1-.938-2.553,3,3,0,0,1,1.3-2.646,7.509,7.509,0,0,1,3.968-.974l1.958-.062v-.6a2.293,2.293,0,0,0-.508-1.625A2.07,2.07,0,0,0,61.8-9.7a5.442,5.442,0,0,0-1.671.256,12.613,12.613,0,0,0-1.538.6l-.779-1.723a8.387,8.387,0,0,1,2.02-.733,9.3,9.3,0,0,1,2.071-.251,4.906,4.906,0,0,1,3.266.943,3.693,3.693,0,0,1,1.1,2.963V0ZM60.955-1.641a2.985,2.985,0,0,0,2.107-.733,2.658,2.658,0,0,0,.795-2.056v-.984L62.4-5.353a4.982,4.982,0,0,0-2.476.569,1.729,1.729,0,0,0-.774,1.553A1.516,1.516,0,0,0,59.6-2.056,1.938,1.938,0,0,0,60.955-1.641Zm12.689-.1a5.86,5.86,0,0,0,1.764-.277V-.205a4.864,4.864,0,0,1-1.031.292,7.1,7.1,0,0,1-1.307.118q-3.425,0-3.425-3.609V-9.516H68.1v-1.066l1.661-.882.82-2.4h1.487v2.522H75.3v1.825h-3.23v6.07A1.7,1.7,0,0,0,72.5-2.158,1.589,1.589,0,0,0,73.645-1.743ZM85.083-3.23a2.967,2.967,0,0,1-1.21,2.548,5.794,5.794,0,0,1-3.466.887,8.187,8.187,0,0,1-3.64-.687V-2.563a8.937,8.937,0,0,0,3.722.923q2.225,0,2.225-1.343a1.064,1.064,0,0,0-.246-.718,2.913,2.913,0,0,0-.81-.595,13.94,13.94,0,0,0-1.569-.7,7.257,7.257,0,0,1-2.651-1.518,2.808,2.808,0,0,1-.692-1.969,2.586,2.586,0,0,1,1.174-2.261,5.571,5.571,0,0,1,3.194-.8,9.047,9.047,0,0,1,3.784.81l-.779,1.815a8.415,8.415,0,0,0-3.086-.759q-1.907,0-1.907,1.087a1.094,1.094,0,0,0,.5.9,10.937,10.937,0,0,0,2.169,1.015,9.914,9.914,0,0,1,2.041.995,2.972,2.972,0,0,1,.943,1.041A3.012,3.012,0,0,1,85.083-3.23ZM89.98-2.2a34.462,34.462,0,0,1-1.8,4.912H86.4A50.466,50.466,0,0,0,87.457-2.44h2.369ZM101.946.205a3.95,3.95,0,0,1-3.312-1.538A6.913,6.913,0,0,1,97.445-5.65a6.936,6.936,0,0,1,1.2-4.343,3.988,3.988,0,0,1,3.338-1.553,3.91,3.91,0,0,1,3.4,1.651h.123a14.445,14.445,0,0,1-.174-1.928v-4.132h2.42V0h-1.887l-.42-1.487h-.113A3.852,3.852,0,0,1,101.946.205Zm.646-1.948a2.623,2.623,0,0,0,2.164-.836,4.4,4.4,0,0,0,.7-2.712v-.338a5.083,5.083,0,0,0-.7-3.045,2.587,2.587,0,0,0-2.184-.9,2.216,2.216,0,0,0-1.958,1.031,5.281,5.281,0,0,0-.687,2.938,5.149,5.149,0,0,0,.667,2.876A2.25,2.25,0,0,0,102.592-1.743Zm18.462-3.948a6.19,6.19,0,0,1-1.425,4.337A5.107,5.107,0,0,1,115.661.205a5.437,5.437,0,0,1-2.81-.718,4.739,4.739,0,0,1-1.876-2.061,7.02,7.02,0,0,1-.656-3.117A6.148,6.148,0,0,1,111.734-10a5.131,5.131,0,0,1,3.989-1.548,5,5,0,0,1,3.9,1.584A6.12,6.12,0,0,1,121.055-5.691Zm-8.254,0q0,3.927,2.9,3.927,2.871,0,2.871-3.927,0-3.886-2.892-3.886a2.466,2.466,0,0,0-2.2,1A5.114,5.114,0,0,0,112.8-5.691Zm15.386,5.9a4.965,4.965,0,0,1-3.912-1.5,6.276,6.276,0,0,1-1.338-4.312,6.312,6.312,0,0,1,1.4-4.4,5.192,5.192,0,0,1,4.045-1.538,7.581,7.581,0,0,1,3.23.667l-.728,1.938a7.3,7.3,0,0,0-2.522-.595q-2.943,0-2.943,3.907a4.679,4.679,0,0,0,.733,2.866A2.538,2.538,0,0,0,128.3-1.8a6.163,6.163,0,0,0,3.045-.8V-.5a4.759,4.759,0,0,1-1.379.543A8.276,8.276,0,0,1,128.187.205ZM141.8,0l-.338-1.487h-.123a3.419,3.419,0,0,1-1.43,1.241,4.783,4.783,0,0,1-2.117.451A4.157,4.157,0,0,1,134.713-.82,4.251,4.251,0,0,1,133.7-3.927v-7.414h2.43v6.993a3.034,3.034,0,0,0,.533,1.953,2.036,2.036,0,0,0,1.671.651,2.661,2.661,0,0,0,2.23-.907,5,5,0,0,0,.713-3.04v-5.65h2.42V0Zm14.679,0h-2.42V-6.993a3.171,3.171,0,0,0-.492-1.943,1.816,1.816,0,0,0-1.538-.641,2.346,2.346,0,0,0-2.046.907,5.324,5.324,0,0,0-.651,3.02V0h-2.41V-11.341h1.887l.338,1.487h.123a3.142,3.142,0,0,1,1.369-1.251,4.414,4.414,0,0,1,1.974-.441q2.615,0,3.466,1.784h.164a3.457,3.457,0,0,1,1.415-1.312,4.491,4.491,0,0,1,2.092-.472,3.809,3.809,0,0,1,2.958,1.025,4.541,4.541,0,0,1,.928,3.127V0h-2.41V-6.993a3.146,3.146,0,0,0-.5-1.943,1.831,1.831,0,0,0-1.543-.641,2.392,2.392,0,0,0-2.056.877,4.519,4.519,0,0,0-.651,2.692Zm15.263.205A5.486,5.486,0,0,1,167.6-1.338a5.858,5.858,0,0,1-1.492-4.25A6.427,6.427,0,0,1,167.5-9.957a4.781,4.781,0,0,1,3.8-1.589,4.673,4.673,0,0,1,3.548,1.364,5.211,5.211,0,0,1,1.3,3.753v1.3h-7.557a3.725,3.725,0,0,0,.892,2.538,3.107,3.107,0,0,0,2.369.887,8.744,8.744,0,0,0,1.871-.19,9.809,9.809,0,0,0,1.861-.631V-.564A7.4,7.4,0,0,1,173.8.031,10.94,10.94,0,0,1,171.741.205ZM171.3-9.721a2.421,2.421,0,0,0-1.841.728,3.47,3.47,0,0,0-.825,2.123h5.147A3.139,3.139,0,0,0,173.1-9,2.315,2.315,0,0,0,171.3-9.721ZM188.655,0h-2.42V-6.973a3.052,3.052,0,0,0-.528-1.958,2.041,2.041,0,0,0-1.677-.646,2.666,2.666,0,0,0-2.235.9,4.982,4.982,0,0,0-.708,3.025V0h-2.41V-11.341h1.887l.338,1.487h.123a3.355,3.355,0,0,1,1.456-1.251,4.88,4.88,0,0,1,2.092-.441q4.081,0,4.081,4.153Zm7.368-1.743a5.86,5.86,0,0,0,1.764-.277V-.205a4.864,4.864,0,0,1-1.031.292,7.1,7.1,0,0,1-1.307.118q-3.425,0-3.425-3.609V-9.516h-1.548v-1.066l1.661-.882.82-2.4h1.487v2.522h3.23v1.825h-3.23v6.07a1.7,1.7,0,0,0,.436,1.287A1.589,1.589,0,0,0,196.022-1.743ZM207.461-3.23a2.967,2.967,0,0,1-1.21,2.548,5.794,5.794,0,0,1-3.466.887,8.187,8.187,0,0,1-3.64-.687V-2.563a8.937,8.937,0,0,0,3.722.923q2.225,0,2.225-1.343a1.064,1.064,0,0,0-.246-.718,2.913,2.913,0,0,0-.81-.595,13.94,13.94,0,0,0-1.569-.7,7.257,7.257,0,0,1-2.651-1.518,2.808,2.808,0,0,1-.692-1.969,2.586,2.586,0,0,1,1.174-2.261,5.571,5.571,0,0,1,3.194-.8,9.047,9.047,0,0,1,3.784.81L206.5-8.921a8.415,8.415,0,0,0-3.086-.759q-1.907,0-1.907,1.087a1.094,1.094,0,0,0,.5.9,10.937,10.937,0,0,0,2.169,1.015,9.914,9.914,0,0,1,2.041.995,2.972,2.972,0,0,1,.943,1.041A3.012,3.012,0,0,1,207.461-3.23ZM6.675,28.205a5.486,5.486,0,0,1-4.137-1.543,5.858,5.858,0,0,1-1.492-4.25A6.427,6.427,0,0,1,2.43,18.043a4.781,4.781,0,0,1,3.8-1.589,4.673,4.673,0,0,1,3.548,1.364,5.211,5.211,0,0,1,1.3,3.753v1.3H3.527a3.725,3.725,0,0,0,.892,2.538,3.107,3.107,0,0,0,2.369.887,8.744,8.744,0,0,0,1.871-.19,9.809,9.809,0,0,0,1.861-.631v1.958a7.4,7.4,0,0,1-1.784.595A10.94,10.94,0,0,1,6.675,28.205Zm-.441-9.926a2.421,2.421,0,0,0-1.841.728,3.47,3.47,0,0,0-.825,2.123H8.716A3.139,3.139,0,0,0,8.039,19,2.315,2.315,0,0,0,6.234,18.279Zm11.6,7.978A5.86,5.86,0,0,0,19.6,25.98v1.815a4.864,4.864,0,0,1-1.031.292,7.1,7.1,0,0,1-1.307.118q-3.425,0-3.425-3.609V18.484H12.29V17.418l1.661-.882.82-2.4h1.487v2.522h3.23v1.825h-3.23v6.07a1.7,1.7,0,0,0,.436,1.287A1.589,1.589,0,0,0,17.837,26.257Zm14.756-7.772H29.824V28H27.4V18.484H25.538V17.356l1.866-.738V15.88a4.126,4.126,0,0,1,.943-2.979,3.857,3.857,0,0,1,2.881-.969,7.69,7.69,0,0,1,2.5.42L33.1,14.178a5.555,5.555,0,0,0-1.7-.287A1.385,1.385,0,0,0,30.2,14.4a2.557,2.557,0,0,0-.374,1.523v.738h2.769Zm11.777,3.825a6.19,6.19,0,0,1-1.425,4.337,5.107,5.107,0,0,1-3.968,1.559,5.437,5.437,0,0,1-2.81-.718,4.739,4.739,0,0,1-1.876-2.061,7.02,7.02,0,0,1-.656-3.117A6.148,6.148,0,0,1,35.049,18a5.131,5.131,0,0,1,3.989-1.548,5,5,0,0,1,3.9,1.584A6.12,6.12,0,0,1,44.369,22.309Zm-8.254,0q0,3.927,2.9,3.927,2.871,0,2.871-3.927,0-3.886-2.892-3.886a2.466,2.466,0,0,0-2.2,1A5.114,5.114,0,0,0,36.115,22.309ZM52.68,16.454a5.8,5.8,0,0,1,1.2.1L53.644,18.8a4.554,4.554,0,0,0-1.066-.123,3.086,3.086,0,0,0-2.343.943,3.41,3.41,0,0,0-.9,2.451V28h-2.41V16.659h1.887l.318,2h.123a4.493,4.493,0,0,1,1.471-1.61A3.5,3.5,0,0,1,52.68,16.454ZM65.329,28h-2.42V21.007a3.171,3.171,0,0,0-.492-1.943,1.816,1.816,0,0,0-1.538-.641,2.346,2.346,0,0,0-2.046.907,5.324,5.324,0,0,0-.651,3.02V28h-2.41V16.659h1.887L58,18.146h.123A3.142,3.142,0,0,1,59.489,16.9a4.414,4.414,0,0,1,1.974-.441q2.615,0,3.466,1.784h.164a3.457,3.457,0,0,1,1.415-1.312,4.491,4.491,0,0,1,2.092-.472,3.809,3.809,0,0,1,2.958,1.025,4.541,4.541,0,0,1,.928,3.127V28h-2.41V21.007a3.147,3.147,0,0,0-.5-1.943,1.831,1.831,0,0,0-1.543-.641,2.392,2.392,0,0,0-2.056.877,4.519,4.519,0,0,0-.651,2.692Zm18.309,0L83.3,26.513h-.123a3.419,3.419,0,0,1-1.43,1.241,4.783,4.783,0,0,1-2.117.451,4.157,4.157,0,0,1-3.076-1.025,4.251,4.251,0,0,1-1.015-3.107V16.659h2.43v6.993a3.034,3.034,0,0,0,.533,1.953,2.036,2.036,0,0,0,1.671.651,2.661,2.661,0,0,0,2.23-.907,5,5,0,0,0,.713-3.04v-5.65h2.42V28Zm7.532,0h-2.41V12.045h2.41ZM101.5,28l-.482-1.579h-.082a4.646,4.646,0,0,1-1.651,1.41,5.221,5.221,0,0,1-2.133.374,3.61,3.61,0,0,1-2.61-.9A3.377,3.377,0,0,1,93.6,24.75a3,3,0,0,1,1.3-2.646,7.509,7.509,0,0,1,3.968-.974l1.958-.062v-.6a2.293,2.293,0,0,0-.508-1.625,2.07,2.07,0,0,0-1.574-.538,5.442,5.442,0,0,0-1.671.256,12.613,12.613,0,0,0-1.538.6l-.779-1.723a8.387,8.387,0,0,1,2.02-.733,9.3,9.3,0,0,1,2.071-.251,4.906,4.906,0,0,1,3.266.943,3.693,3.693,0,0,1,1.1,2.963V28Zm-3.589-1.641a2.985,2.985,0,0,0,2.107-.733,2.658,2.658,0,0,0,.795-2.056v-.984l-1.456.062a4.982,4.982,0,0,0-2.476.569,1.729,1.729,0,0,0-.774,1.553,1.516,1.516,0,0,0,.451,1.174A1.938,1.938,0,0,0,97.911,26.359ZM108.786,28h-2.41V16.659h2.41Zm-2.553-14.345a1.334,1.334,0,0,1,.354-.995,1.378,1.378,0,0,1,1.01-.349,1.349,1.349,0,0,1,.99.349,1.334,1.334,0,0,1,.354.995,1.309,1.309,0,0,1-.354.969,1.338,1.338,0,0,1-.99.354,1.367,1.367,0,0,1-1.01-.354A1.309,1.309,0,0,1,106.233,13.655Zm11.541,2.8a5.8,5.8,0,0,1,1.2.1l-.236,2.246a4.554,4.554,0,0,0-1.066-.123,3.086,3.086,0,0,0-2.343.943,3.41,3.41,0,0,0-.9,2.451V28h-2.41V16.659h1.887l.318,2h.123a4.493,4.493,0,0,1,1.471-1.61A3.5,3.5,0,0,1,117.773,16.454Zm8.044,11.751a5.486,5.486,0,0,1-4.137-1.543,5.858,5.858,0,0,1-1.492-4.25,6.427,6.427,0,0,1,1.384-4.368,4.781,4.781,0,0,1,3.8-1.589,4.673,4.673,0,0,1,3.548,1.364,5.211,5.211,0,0,1,1.3,3.753v1.3H122.67a3.725,3.725,0,0,0,.892,2.538,3.107,3.107,0,0,0,2.369.887,8.744,8.744,0,0,0,1.871-.19,9.809,9.809,0,0,0,1.861-.631v1.958a7.4,7.4,0,0,1-1.784.595A10.94,10.94,0,0,1,125.818,28.205Zm-.441-9.926a2.421,2.421,0,0,0-1.841.728,3.47,3.47,0,0,0-.825,2.123h5.147A3.139,3.139,0,0,0,127.182,19,2.315,2.315,0,0,0,125.377,18.279Zm15,6.491a2.967,2.967,0,0,1-1.21,2.548,5.794,5.794,0,0,1-3.466.887,8.187,8.187,0,0,1-3.64-.687V25.437a8.937,8.937,0,0,0,3.722.923q2.225,0,2.225-1.343a1.064,1.064,0,0,0-.246-.718,2.913,2.913,0,0,0-.81-.595,13.94,13.94,0,0,0-1.569-.7,7.257,7.257,0,0,1-2.651-1.518,2.808,2.808,0,0,1-.692-1.969,2.586,2.586,0,0,1,1.174-2.261,5.571,5.571,0,0,1,3.194-.8,9.047,9.047,0,0,1,3.784.81l-.779,1.815a8.415,8.415,0,0,0-3.086-.759q-1.907,0-1.907,1.087a1.094,1.094,0,0,0,.5.9,10.937,10.937,0,0,0,2.169,1.015,9.913,9.913,0,0,1,2.041.995,2.972,2.972,0,0,1,.943,1.041A3.012,3.012,0,0,1,140.374,24.77Zm6.481,8.275a5.429,5.429,0,0,1-1.8-.256V30.881a5.546,5.546,0,0,0,1.425.185q1.538,0,1.538-1.743V16.659h2.41V29.487a3.564,3.564,0,0,1-.918,2.656A3.625,3.625,0,0,1,146.854,33.045Zm1.015-19.39a1.334,1.334,0,0,1,.354-.995,1.378,1.378,0,0,1,1.01-.349,1.349,1.349,0,0,1,.99.349,1.334,1.334,0,0,1,.354.995,1.309,1.309,0,0,1-.354.969,1.338,1.338,0,0,1-.99.354,1.367,1.367,0,0,1-1.01-.354A1.309,1.309,0,0,1,147.87,13.655ZM161.656,28l-.338-1.487h-.123a3.419,3.419,0,0,1-1.43,1.241,4.783,4.783,0,0,1-2.117.451,4.157,4.157,0,0,1-3.076-1.025,4.251,4.251,0,0,1-1.015-3.107V16.659h2.43v6.993a3.034,3.034,0,0,0,.533,1.953,2.036,2.036,0,0,0,1.671.651,2.661,2.661,0,0,0,2.23-.907,5,5,0,0,0,.713-3.04v-5.65h2.42V28Zm10.874-11.546a5.8,5.8,0,0,1,1.2.1l-.236,2.246a4.554,4.554,0,0,0-1.066-.123,3.086,3.086,0,0,0-2.343.943,3.41,3.41,0,0,0-.9,2.451V28h-2.41V16.659h1.887l.318,2h.123a4.493,4.493,0,0,1,1.471-1.61A3.5,3.5,0,0,1,172.531,16.454ZM178.032,28h-2.41V16.659h2.41Zm-2.553-14.345a1.334,1.334,0,0,1,.354-.995,1.378,1.378,0,0,1,1.01-.349,1.349,1.349,0,0,1,.99.349,1.334,1.334,0,0,1,.354.995,1.309,1.309,0,0,1-.354.969,1.338,1.338,0,0,1-.99.354,1.367,1.367,0,0,1-1.01-.354A1.309,1.309,0,0,1,175.479,13.655Zm9.613,14.55a3.95,3.95,0,0,1-3.312-1.538,6.913,6.913,0,0,1-1.189-4.317,6.936,6.936,0,0,1,1.2-4.343,3.988,3.988,0,0,1,3.338-1.553,3.91,3.91,0,0,1,3.4,1.651h.123a14.445,14.445,0,0,1-.174-1.928V12.045h2.42V28h-1.887l-.42-1.487h-.113A3.852,3.852,0,0,1,185.092,28.205Zm.646-1.948a2.623,2.623,0,0,0,2.164-.836,4.4,4.4,0,0,0,.7-2.712v-.338a5.083,5.083,0,0,0-.7-3.045,2.587,2.587,0,0,0-2.184-.9,2.216,2.216,0,0,0-1.958,1.031,5.281,5.281,0,0,0-.687,2.938,5.149,5.149,0,0,0,.667,2.876A2.25,2.25,0,0,0,185.738,26.257ZM196.551,28h-2.41V16.659h2.41ZM194,13.655a1.334,1.334,0,0,1,.354-.995,1.378,1.378,0,0,1,1.01-.349,1.349,1.349,0,0,1,.99.349,1.334,1.334,0,0,1,.354.995,1.309,1.309,0,0,1-.354.969,1.338,1.338,0,0,1-.99.354,1.367,1.367,0,0,1-1.01-.354A1.309,1.309,0,0,1,194,13.655Zm10.28,12.623a2.555,2.555,0,0,0,2.179-.877,4.382,4.382,0,0,0,.661-2.651v-.379a5.186,5.186,0,0,0-.682-3.025,2.553,2.553,0,0,0-2.2-.923,2.213,2.213,0,0,0-1.969,1.025,5.34,5.34,0,0,0-.677,2.943Q201.591,26.277,204.277,26.277Zm-.687,1.928a3.924,3.924,0,0,1-3.292-1.543,6.917,6.917,0,0,1-1.189-4.312,6.923,6.923,0,0,1,1.21-4.332,3.981,3.981,0,0,1,3.333-1.564,4.47,4.47,0,0,1,1.912.395,4.007,4.007,0,0,1,1.512,1.3h.082l.267-1.487h2V33.045H207V28.236q0-.451.041-.954t.072-.769h-.133A3.715,3.715,0,0,1,203.59,28.205ZM220.658,28l-.338-1.487H220.2a3.419,3.419,0,0,1-1.43,1.241,4.783,4.783,0,0,1-2.117.451,4.157,4.157,0,0,1-3.076-1.025,4.251,4.251,0,0,1-1.015-3.107V16.659h2.43v6.993a3.034,3.034,0,0,0,.533,1.953,2.036,2.036,0,0,0,1.671.651,2.661,2.661,0,0,0,2.23-.907,5,5,0,0,0,.713-3.04v-5.65h2.42V28Zm10.075.205a5.486,5.486,0,0,1-4.137-1.543,5.858,5.858,0,0,1-1.492-4.25,6.427,6.427,0,0,1,1.384-4.368,4.781,4.781,0,0,1,3.8-1.589,4.673,4.673,0,0,1,3.548,1.364,5.211,5.211,0,0,1,1.3,3.753v1.3h-7.557a3.725,3.725,0,0,0,.892,2.538,3.107,3.107,0,0,0,2.369.887,8.744,8.744,0,0,0,1.871-.19,9.809,9.809,0,0,0,1.861-.631v1.958a7.4,7.4,0,0,1-1.784.595A10.94,10.94,0,0,1,230.733,28.205Zm-.441-9.926a2.421,2.421,0,0,0-1.841.728,3.47,3.47,0,0,0-.825,2.123h5.147A3.139,3.139,0,0,0,232.1,19,2.315,2.315,0,0,0,230.292,18.279Zm15,6.491a2.967,2.967,0,0,1-1.21,2.548,5.794,5.794,0,0,1-3.466.887,8.187,8.187,0,0,1-3.64-.687V25.437a8.937,8.937,0,0,0,3.722.923q2.225,0,2.225-1.343a1.064,1.064,0,0,0-.246-.718,2.913,2.913,0,0,0-.81-.595,13.94,13.94,0,0,0-1.569-.7,7.257,7.257,0,0,1-2.651-1.518,2.808,2.808,0,0,1-.692-1.969,2.586,2.586,0,0,1,1.174-2.261,5.571,5.571,0,0,1,3.194-.8,9.047,9.047,0,0,1,3.784.81l-.779,1.815a8.415,8.415,0,0,0-3.086-.759q-1.907,0-1.907,1.087a1.094,1.094,0,0,0,.5.9A10.937,10.937,0,0,0,242,21.325a9.913,9.913,0,0,1,2.041.995,2.972,2.972,0,0,1,.943,1.041A3.012,3.012,0,0,1,245.289,24.77Z" transform="translate(552 1070)" fill="#fff"/><g transform="translate(38)"><g transform="translate(38.172 -206.873)"><g transform="translate(0.417 1272.02)"><path d="M66.377,1302.343l.026-.052L78.7,1277.579H49.768c-.068.005-.134.006-.2.017a2.528,2.528,0,0,0-.333.066h0c-.044.012-.088.031-.132.044-.084.026-.167.05-.252.083h0a4.337,4.337,0,0,0-1.117.675l-.012.009c-.109.09-.215.187-.317.287l-.036.035c-.063.064-.123.132-.182.2-.031.035-.066.068-.1.1l-.038.047c-.087.106-.17.215-.246.328l-.026.04c-.076.116-.147.233-.211.354l-.005.009c-.028.051-.056.1-.082.154l-.524,1.054-11.965,24.063H62.463a4.493,4.493,0,0,0,2.919-1.445A5.309,5.309,0,0,0,66.377,1302.343ZM35,1305.053l-.041.01.041-.01Zm26.486,0-.041.01.041-.01Zm1.515,0-.041.01.041-.01Z" transform="translate(-21.852 -1277.579)" fill="#c1c1c1"/><path d="M46.736,1284.592c0-.6.028-1.19.068-1.778l0,0-.027.042a4.122,4.122,0,0,0-.211.354l-.005.009c-.028.051-.056.1-.082.154l-.524,1.054-11.965,24.063H62.463a2.6,2.6,0,0,0,.4-.034A25.729,25.729,0,0,1,46.736,1284.592ZM35,1308.4l-.041.01.041-.01Zm26.486,0-.041.01.041-.01Z" transform="translate(-21.852 -1280.921)" fill="url(#e)"/><path d="M29.133,1290.712a4.493,4.493,0,0,0-2.918,1.445,5.309,5.309,0,0,0-1,1.363l-.026.052-.188.378c.274-.074,32-.1,32-.1a4.493,4.493,0,0,0,2.919-1.445,5.3,5.3,0,0,0,.995-1.362l.026-.052.188-.378C60.861,1290.688,29.133,1290.712,29.133,1290.712Zm28.414,3.043-.041.01.041-.011Z" transform="translate(-16.117 -1285.902)" fill="#fff"/><path d="M4.544,1309.516a4.5,4.5,0,0,0-2.919,1.445,5.3,5.3,0,0,0-.995,1.363l-.026.052-.188.378c.274-.073,32-.1,32-.1a4.494,4.494,0,0,0,2.919-1.445,5.3,5.3,0,0,0,.995-1.363l.026-.052.188-.378C36.272,1309.493,4.544,1309.516,4.544,1309.516Zm28.414,3.043-.041.01.041-.01Z" transform="translate(-0.417 -1297.908)" fill="#fff"/></g></g><g transform="translate(113 1067)"><g clip-path="url(#f)"><path d="M21.794,12.471c0,7.622-4.514,12.174-10.434,12.913a23.3,23.3,0,0,1-3.257.149H0V0H8.251a23.3,23.3,0,0,1,3.257.149c5.92.7,10.286,4.588,10.286,12.322m-4.366,0C17.428,7.105,14.875,4,10.8,3.4A16.34,16.34,0,0,0,7.882,3.22H4.07V22.277H7.734a16.489,16.489,0,0,0,2.923-.149c4.107-.592,6.771-4,6.771-9.657" fill="#fff"/><path d="M44.068,15.69c0,5.735-3.367,10.36-9.954,10.36-6.623,0-9.953-4.625-9.953-10.36s3.33-10.323,9.953-10.323c6.587,0,9.954,4.588,9.954,10.323m-4.329,0c0-4.44-2.072-7.363-5.625-7.363-3.589,0-5.661,2.923-5.661,7.363s2.072,7.4,5.661,7.4c3.553,0,5.625-2.96,5.625-7.4" fill="#fff"/><path d="M64.27,12.692H60.162c-.593-3-2.183-4.366-4.589-4.366-2.849,0-5.106,2.257-5.106,7.179,0,5.328,2.221,7.584,4.958,7.584,2.332,0,4-1.406,4.589-4.07h4.145c-.926,4.7-4.33,7.03-8.956,7.03-5.142,0-9.028-3.255-9.028-10.249,0-6.7,4.367-10.434,9.509-10.434,4.959,0,8.1,3,8.586,7.326" fill="#fff"/><path d="M84.915,25.532H80.881V22.165l-1.368,2.442a7.76,7.76,0,0,1-4.959,1.443c-4.07,0-6.438-2.294-6.882-5a22.1,22.1,0,0,1-.185-3.477V5.884H71.52V16.762a26.668,26.668,0,0,0,.148,2.7,3.871,3.871,0,0,0,4.218,3.551c2.849,0,4.995-2.182,4.995-7.88V5.884h4.034Z" fill="#fff"/><path d="M117.845,13.654V25.532h-4.07v-10.4a31.605,31.605,0,0,0-.149-3.552,3.35,3.35,0,0,0-3.663-3.219c-2.368,0-3.959,1.961-3.959,7.289v9.88H101.97v-10.4a31.909,31.909,0,0,0-.147-3.552,3.372,3.372,0,0,0-3.664-3.219c-2.4,0-3.96,1.961-3.96,7.289v9.88h-4.07V5.883H94.2V8.806l1.333-2.294a6.533,6.533,0,0,1,4.181-1.146c3.109,0,5.069,1.554,5.81,3.737l1.813-2.591a6.669,6.669,0,0,1,4.181-1.146c3.627,0,5.7,2.108,6.142,4.809a22.118,22.118,0,0,1,.186,3.479" fill="#fff"/><path d="M139.638,16.837h-14.1c.333,4.7,2.479,6.253,5.143,6.253a4.471,4.471,0,0,0,4.625-3.922h4.108c-.851,4.662-4.588,6.882-8.88,6.882-5.255,0-9.214-3.331-9.214-10.287,0-6.216,3.959-10.4,9.62-10.4,5.7,0,8.77,4.292,8.77,9.843a14.926,14.926,0,0,1-.073,1.628m-14.062-2.85h9.954c-.3-3.626-1.888-5.661-4.736-5.661-2.776,0-4.774,1.887-5.218,5.661" fill="#fff"/><path d="M161.06,14.469V25.532h-4.07V14.912c0-.924,0-1.775-.075-2.774-.184-2.221-1.369-3.774-4.144-3.774-2.812,0-5.107,2.219-5.107,8.362v8.806h-4.07V5.884h4.07V9.14L149,6.883a7.4,7.4,0,0,1,4.959-1.517c4.217,0,6.623,2.183,6.993,5.624.074,1,.111,1.887.111,3.479" fill="#fff"/><path d="M170.864,19.168c0,.666,0,1.11.037,1.628.149,1.924.888,2.331,3.553,2.072v2.813a20.96,20.96,0,0,1-3,.221c-3.071,0-4.4-1.147-4.588-3.737-.037-.666-.037-1.518-.037-2.627V8.881h-2.776V6.032h2.776v-4.7h4.033v4.7h3.849V8.881h-3.849Z" fill="#fff"/><path d="M192.213,11.508h-4.145c-.407-2.071-1.627-3.293-3.626-3.293-1.924,0-2.849,1.073-2.849,2.554,0,1.775,1.443,2.515,4.366,3.293,4.292,1.11,6.55,2.812,6.55,6.29,0,3.811-3.367,5.7-7.66,5.7-4.366,0-7.585-1.961-8.141-6.4h4.108A3.939,3.939,0,0,0,185,23.164c1.887,0,3.4-.814,3.4-2.516s-1.332-2.627-4.662-3.515c-3.589-.925-6.254-2.442-6.254-5.884,0-3.663,2.887-5.883,7.253-5.883,4.514,0,7.031,2.553,7.475,6.142" fill="#fff"/><path d="M213.673,25.532h-16.54V0h2.294V23.645h14.246Z" fill="#fff"/><path d="M232.692,16.429H217.853c.259,5.773,3.182,7.808,6.365,7.808a5.86,5.86,0,0,0,5.883-4.885h2.4c-.925,4.552-4.515,6.7-8.437,6.7-4.884,0-8.7-3.4-8.7-10.286,0-6.291,3.922-10.324,9.066-10.324,5.476,0,8.325,4.366,8.325,9.77a9.008,9.008,0,0,1-.073,1.22m-14.839-1.813h12.581c-.259-5.032-2.776-7.326-6.069-7.326-3.218,0-6.179,2.442-6.512,7.326m5.4-10.546L225.513,0h2.22L224.81,4.07Z" fill="#fff"/><path d="M253.189,20.574c0,1.924,0,3.441-.037,4.588-.185,5.218-3.442,8.289-8.807,8.289-4.847,0-7.807-2-8.288-6.254l-.037-.444h2.294l.074.444c.333,2.887,2.664,4.441,5.957,4.441,4.145,0,6.364-2.48,6.513-6.365.037-1.073.037-1.85.037-2.886v-.481l-1.3,2.146a7.581,7.581,0,0,1-5.55,2c-5.476,0-8.732-4.255-8.732-10.065,0-7.1,4.366-10.546,9.324-10.546a7.271,7.271,0,0,1,5.032,1.777L250.9,9.325v-3.4h2.294ZM250.9,16.208v-1.48c0-5.551-3.367-7.438-6.254-7.438-3.922,0-6.809,3.108-6.809,8.4,0,4.7,2.258,8.548,6.55,8.548,3.479,0,6.513-2.109,6.513-8.029" fill="#fff"/><path d="M270.06,21.979l-.962,2.072a7.49,7.49,0,0,1-5.439,2c-3.626,0-6.216-1.886-6.216-5.438,0-4.478,4.255-6.661,11.322-6.661h1.258v-.7c0-.888,0-1.628-.073-2.406-.186-2.256-1.555-3.551-4.366-3.551a4.542,4.542,0,0,0-4.922,4.477h-2.406c.259-3.848,3.183-6.328,7.328-6.328,4.329,0,6.364,1.962,6.66,5.181.074.851.074,1.665.074,2.59v6.845a45.478,45.478,0,0,0,.37,5.477h-2.295Zm-.037-4V15.726c-5.513-.37-10.064.925-10.064,4.7,0,2.48,1.554,3.812,4.4,3.812,3.4,0,5.661-2.591,5.661-6.254" fill="#fff"/><path d="M293.3,25.532H291V21.758l-1.073,2.183a7.355,7.355,0,0,1-5.477,2.109c-4,0-6.364-2.257-6.808-5.366a25.9,25.9,0,0,1-.148-3.293V5.958h2.294V16.874a26.427,26.427,0,0,0,.149,2.923,4.671,4.671,0,0,0,5.032,4.4c3.256,0,6.031-2.368,6.031-8.511V5.958H293.3Z" fill="#fff"/><path d="M312.536,25.532h-2.7l-5.587-8.4-5.625,8.4h-2.664l6.994-9.88-6.7-9.694h2.7l5.4,8.178,5.476-8.178H312.5l-6.882,9.657Z" fill="#fff"/><path d="M318.711,20.794v.784H317.2v3.954h-.941V21.578H314.74v-.784Zm5.121,4.738-.174-2.787c-.017-.366-.017-.819-.034-1.324h-.053c-.122.418-.261.976-.4,1.411l-.853,2.63h-.976l-.853-2.7c-.087-.365-.227-.923-.331-1.341h-.052c0,.435-.017.889-.035,1.324l-.175,2.787h-.9l.348-4.738h1.411l.819,2.317c.105.366.192.714.314,1.2h.017c.122-.435.226-.835.331-1.184l.818-2.334h1.359l.366,4.738Z" fill="#fff"/></g></g></g><g transform="translate(116.024 142)"><g transform="translate(56.25 62.5)"><path d="M196.184.4H0V-.4H196.184Z" transform="translate(0 639.148)"/><path d="M139.3.4H0V-.4H139.3Z" transform="translate(0 719.46)"/><text transform="translate(105.777 12)" font-size="13" font-family="TimesNewRomanPS-BoldMT, Times New Roman" font-weight="700"><tspan x="0" y="0">CONTRAT DE TRAVAIL À DURÉE INDÉTERMINÉE</tspan></text><text transform="translate(1.74 52.156)" font-size="13" font-family="TimesNewRomanPS-BoldMT, Times New Roman" font-weight="700"><tspan x="0" y="0">LE PRÉSENT CONTRAT DE TRAVAIL</tspan></text><text transform="translate(241.794 52.156)" font-size="13" font-family="TimesNewRomanPSMT, Times New Roman"><tspan x="0" y="0" xml:space="preserve"> en date du ________________ est un</tspan></text><text transform="translate(445.451 52.156)" font-size="13" font-family="TimesNewRomanPS-BoldMT, Times New Roman" font-weight="700"><tspan x="0" y="0" xml:space="preserve"> contrat à durée</tspan></text><text transform="translate(228.253 72.234)" font-size="13" font-family="TimesNewRomanPS-BoldMT, Times New Roman" font-weight="700"><tspan x="0" y="0">indéterminée</tspan></text><text transform="translate(228.063 92.312)" font-size="13" font-family="TimesNewRomanPSMT, Times New Roman"><tspan x="0" y="0">(le « Contrat »)</tspan></text><text transform="translate(240.489 132.468)" font-size="13" font-family="TimesNewRomanPS-BoldMT, Times New Roman" font-weight="700"><tspan x="0" y="0">ENTRE :</tspan></text><text transform="translate(74.166 172.624)" font-size="13" font-family="TimesNewRomanPSMT, Times New Roman"><tspan x="0" y="0">______________________________________ ayant son siège social au</tspan></text><text transform="translate(138.594 192.701)" font-size="13" font-family="TimesNewRomanPSMT, Times New Roman"><tspan x="0" y="0">______________________________________,</tspan></text><text transform="translate(61.851 212.779)" font-size="13" font-family="TimesNewRomanPSMT, Times New Roman"><tspan x="0" y="0">dont le numéro d&apos;immatriculation est _______________________________,</tspan></text><text transform="translate(64.249 232.857)" font-size="13" font-family="TimesNewRomanPSMT, Times New Roman"><tspan x="0" y="0">et dont l&apos;adresse courriel est ______________________________________</tspan></text><text transform="translate(221.828 252.935)" font-size="13" font-family="TimesNewRomanPSMT, Times New Roman"><tspan x="0" y="0">(« l&apos;Employeur »)</tspan></text><text transform="translate(252.38 293.091)" font-size="13" font-family="TimesNewRomanPS-BoldMT, Times New Roman" font-weight="700"><tspan x="0" y="0">- ET -</tspan></text><text transform="translate(104.071 333.247)" font-size="13" font-family="TimesNewRomanPSMT, Times New Roman"><tspan x="0" y="0">______________________________________ demeurant au</tspan></text><text transform="translate(138.594 353.325)" font-size="13" font-family="TimesNewRomanPSMT, Times New Roman"><tspan x="0" y="0">______________________________________,</tspan></text><text transform="translate(56.754 373.403)" font-size="13" font-family="TimesNewRomanPSMT, Times New Roman"><tspan x="0" y="0">, dont le numéro de sécurité sociale est _______________________________,</tspan></text><text transform="translate(64.249 393.481)" font-size="13" font-family="TimesNewRomanPSMT, Times New Roman"><tspan x="0" y="0">et dont l&apos;adresse courriel est ______________________________________</tspan></text><text transform="translate(227.885 413.559)" font-size="13" font-family="TimesNewRomanPSMT, Times New Roman"><tspan x="0" y="0">(le « Salarié »)</tspan></text><text transform="translate(92.548 453.715)" font-size="13" font-family="TimesNewRomanPSMT, Times New Roman"><tspan x="0" y="0">(individuellement une « Partie » et collectivement les « Parties »)</tspan></text><text transform="translate(0 493.871)" font-size="13" font-family="TimesNewRomanPS-BoldMT, Times New Roman" font-weight="700"><tspan x="0" y="0">LE CONTEXTE</tspan></text><text transform="translate(0 534.026)" font-size="13" font-family="TimesNewRomanPSMT, Times New Roman"><tspan x="0" y="0">L&apos;Employeur estime que le Salarié possède les compétences et atouts nécessaires pour occuper un</tspan></text><text transform="translate(0 554.104)" font-size="13" font-family="TimesNewRomanPSMT, Times New Roman"><tspan x="0" y="0">emploi chez l&apos;Employeur.</tspan></text><text transform="translate(0 594.26)" font-size="13" font-family="TimesNewRomanPS-BoldMT, Times New Roman" font-weight="700"><tspan x="0" y="0">IL A ÉTÉ CONVENU DE CE QUI SUIT :</tspan></text><text transform="translate(0 634.416)" font-size="13" font-family="TimesNewRomanPS-BoldMT, Times New Roman" font-weight="700"><tspan x="0" y="0">Date de début et durée du Contrat</tspan></text><text transform="translate(0 654.494)" font-size="13" font-family="TimesNewRomanPSMT, Times New Roman"><tspan x="0" y="0">1.</tspan></text><text transform="translate(36.81 654.494)" font-size="13" font-family="TimesNewRomanPSMT, Times New Roman"><tspan x="0" y="0">Le Salarié est embauché à partir du ______________________ (la « Date de début ») dans le</tspan></text><text transform="translate(36.81 674.572)" font-size="13" font-family="TimesNewRomanPSMT, Times New Roman"><tspan x="0" y="0">cadre d&apos;un contrat à durée indéterminée à temps plein.</tspan></text><text transform="translate(0 714.728)" font-size="13" font-family="TimesNewRomanPS-BoldMT, Times New Roman" font-weight="700"><tspan x="0" y="0">Déclaration d&apos;embauche</tspan></text><text transform="translate(0 734.806)" font-size="13" font-family="TimesNewRomanPSMT, Times New Roman"><tspan x="0" y="0">2.</tspan></text><text transform="translate(36.81 734.806)" font-size="13" font-family="TimesNewRomanPSMT, Times New Roman"><tspan x="0" y="0">La déclaration préalable à l&apos;embauche du Salarié a été faite auprès de l&apos;URSSAF auprès de</tspan></text><text transform="translate(36.81 754.884)" font-size="13" font-family="TimesNewRomanPSMT, Times New Roman"><tspan x="0" y="0">laquelle l&apos;Employeur est immatriculé.</tspan></text></g></g></g></svg>